<?xml version="1.0" encoding="UTF-8"?>
<svg width="32px" height="32px" viewBox="0 0 32 32" version="1.1" xmlns="http://www.w3.org/2000/svg" xmlns:xlink="http://www.w3.org/1999/xlink">
    <title>icon-sanctions</title>
    <g id="Navigation" stroke="none" stroke-width="1" fill="none" fill-rule="evenodd">
        <g id="Complycude---Navigation" transform="translate(-80.000000, -176.000000)">
            <g id="Subnav" transform="translate(0.000000, 93.000000)">
                <g id="icon-sanctions" transform="translate(80.000000, 83.000000)">
                    <rect id="bounds" x="0" y="0" width="32" height="32" rx="2"></rect>
                    <path d="M21.4245181,10.1293008 C21.4245181,10.1293008 20.8650033,10.1114032 20.6004047,10.1114032 C18.2135623,10.1114032 15.7034225,7.12366424 15.7034225,7.12366424 C15.5650831,6.95953712 15.3417136,6.9586774 15.2020492,7.12171035 C15.2020492,7.12171035 12.6431983,10.1114813 10.2566676,10.1114813 C9.9976027,10.1114813 9.4017689,10.1196095 9.4017689,10.1196095 C9.18744019,10.1225013 9,10.3007746 9,10.515703 L9,18.1951331 C9,18.4100614 9.03117508,18.7607464 9.05354321,18.9745806 C9.05354321,18.9745806 9.10373509,19.392714 9.25321962,19.7806011 C9.45500035,20.3040103 9.77844185,20.8062393 10.1695333,21.2788473 C10.6476032,21.8564966 11.2330713,22.389519 11.8359974,22.8625959 C12.8661001,23.6707266 13.8701717,24.3031631 14.5665451,24.6812808 C14.7958379,24.8057047 15.1273069,25 15.4553468,25 C15.7833866,25 16.1154792,24.8131295 16.343447,24.6841725 C16.9120026,24.3624052 17.6991735,23.8554087 18.5764403,23.2121867 C19.0342464,22.8765076 19.4943907,22.5037827 19.9189174,22.1008897 C20.1341034,21.8966687 20.3401707,21.6847884 20.5322092,21.4661867 C20.8081087,21.1519223 21.0550154,20.8235117 21.2582769,20.4837686 C21.4393262,20.1812276 21.5858491,19.8696987 21.687324,19.5509013 C21.789968,19.2285087 21.781161,18.9532441 21.781161,18.9532441 C21.7993985,18.7391754 21.7819404,18.3880997 21.7819404,18.1731713 L21.7819404,10.5321939 C21.7816287,10.3172655 21.6386909,10.1359441 21.4245181,10.1293008 L21.4245181,10.1293008 Z M17.2517331,18.7629348 L15.4559703,17.8444481 L13.6591163,18.7632474 L13.9754655,16.7658203 L12.5488157,15.3364293 L14.5397345,15.0206018 L15.4551909,13.2180952 L16.3700237,15.0206018 L18.3621896,15.3364293 L16.9358515,16.7656639 L17.2517331,18.7629348 Z" id="Shape" fill="#353848" fill-rule="nonzero"></path>
                </g>
            </g>
        </g>
    </g>
</svg>